<svg xmlns="http://www.w3.org/2000/svg" width="14.581" height="10.555" viewBox="0 0 14.581 10.555"><defs><style>.a{fill:#fff;}</style></defs><path class="a" d="M13.57,4.484V1.575A1.577,1.577,0,0,0,11.995,0H2.586A1.577,1.577,0,0,0,1.011,1.575V4.484A2.022,2.022,0,0,0,0,6.233V9.448a.427.427,0,0,0,.427.427H.852v.253a.427.427,0,0,0,.854,0V9.875H12.874v.253a.427.427,0,1,0,.854,0V9.875h.425a.427.427,0,0,0,.427-.427V6.233A2.022,2.022,0,0,0,13.57,4.484ZM1.865,1.575A.722.722,0,0,1,2.586.854h9.408a.722.722,0,0,1,.721.721v.012a1.136,1.136,0,0,0-.283-.036H8.014a1.132,1.132,0,0,0-.723.26,1.133,1.133,0,0,0-.723-.26H2.148a1.136,1.136,0,0,0-.283.036ZM12.716,2.689V3.928a.283.283,0,0,1-.283.283H8.014a.283.283,0,0,1-.283-.283V2.689a.283.283,0,0,1,.283-.283h4.419A.283.283,0,0,1,12.716,2.689Zm-10.851,0a.283.283,0,0,1,.283-.283H6.567a.283.283,0,0,1,.283.283V3.928a.283.283,0,0,1-.283.283H2.148a.283.283,0,0,1-.283-.283ZM13.726,9.021H.854V8.115H13.726Zm0-1.76H.854V6.233A1.168,1.168,0,0,1,2.021,5.066H12.559a1.168,1.168,0,0,1,1.167,1.167Zm0,0" transform="translate(0 0)"/></svg>