<svg xmlns="http://www.w3.org/2000/svg" width="15.861" height="8.866" viewBox="0 0 15.861 8.866"><defs><style>.a{fill:#fff;}</style></defs><g transform="translate(0 -112.894)"><g transform="translate(0 112.894)"><path class="a" d="M15.075,115.321H14.76V114.15a1.257,1.257,0,0,0-1.256-1.256H8.954a1.255,1.255,0,0,0-1.023.529,1.255,1.255,0,0,0-1.023-.529H4.048a.232.232,0,0,0,0,.465H6.907a.792.792,0,0,1,.791.791v2.324l-.015-.014a1.519,1.519,0,0,0-1.025-.4H2.788a.8.8,0,0,0-.527-.69A.772.772,0,0,0,2,115.321H1.566V114.15a.792.792,0,0,1,.791-.791h.762a.232.232,0,0,0,0-.465H2.357A1.257,1.257,0,0,0,1.1,114.15v1.171H.786a.787.787,0,0,0-.786.786v2.426a1.639,1.639,0,0,0,1.637,1.637h.117l-.255.685a.678.678,0,0,0,.63.906H2.5a.675.675,0,0,0,.536-.267l1-1.324h7.781l1,1.324a.675.675,0,0,0,.536.266h.374a.678.678,0,0,0,.63-.906l-.255-.685h.117a1.639,1.639,0,0,0,1.637-1.637v-2.426A.787.787,0,0,0,15.075,115.321ZM8.163,114.15a.792.792,0,0,1,.791-.791H13.5a.792.792,0,0,1,.791.791v1.171h-.437a.8.8,0,0,0-.725.483.781.781,0,0,0-.059.251H9.2a1.524,1.524,0,0,0-1.04.418V114.15Zm-5.373,2.37H6.658a1.042,1.042,0,0,1,1.04,1.04v.33H2.789Zm-.122,4.694a.208.208,0,0,1-.165.082H2.129a.209.209,0,0,1-.194-.279l.315-.847H3.457Zm11.064.082h-.374a.208.208,0,0,1-.165-.082l-.79-1.044h1.208l.315.847A.209.209,0,0,1,13.732,121.3Zm.492-1.591H1.637a1.174,1.174,0,0,1-1.172-1.172v-2.426a.322.322,0,0,1,.321-.321H2a.322.322,0,0,1,.321.321v2.016a.232.232,0,0,0,.232.232h8.534a.232.232,0,0,0,0-.465H8.163v-.33a1.042,1.042,0,0,1,1.04-1.04h3.868v1.371H12.02a.232.232,0,0,0,0,.465H13.3a.232.232,0,0,0,.232-.232v-2.016a.322.322,0,0,1,.321-.321h1.217a.322.322,0,0,1,.321.321v2.426h0A1.174,1.174,0,0,1,14.224,119.705Z" transform="translate(0 -112.894)"/></g></g></svg>