<svg xmlns="http://www.w3.org/2000/svg" width="12.674" height="12" viewBox="0 0 12.674 12"><defs><style>.a{fill:#fff;}</style></defs><g transform="translate(0 -12.5)"><g transform="translate(0 12.5)"><path class="a" d="M11.663,12.5H1.011A1.012,1.012,0,0,0,0,13.511V21.6a1.012,1.012,0,0,0,1.011,1.011h3.91V24.1H3.506a.2.2,0,0,0,0,.4H9.169a.2.2,0,0,0,0-.4H7.753V22.612h3.91A1.012,1.012,0,0,0,12.674,21.6v-8.09A1.012,1.012,0,0,0,11.663,12.5ZM7.348,24.1H5.326V22.612H7.348ZM12.27,21.6a.607.607,0,0,1-.607.607H1.011A.607.607,0,0,1,.4,21.6v-.607H12.27Zm0-1.011H.4V13.511a.607.607,0,0,1,.607-.607H11.663a.607.607,0,0,1,.607.607Z" transform="translate(0 -12.5)"/><path class="a" d="M40.854,42.5H30.2a.2.2,0,0,0-.2.2v6.472a.2.2,0,0,0,.2.2h8.764a.2.2,0,0,0,0-.4H30.4V42.9H40.652v6.067h-.876a.2.2,0,0,0,0,.4h1.079a.2.2,0,0,0,.2-.2V42.7A.2.2,0,0,0,40.854,42.5Z" transform="translate(-29.191 -41.691)"/></g></g></svg>