<svg xmlns="http://www.w3.org/2000/svg" width="15.207" height="11.583" viewBox="0 0 15.207 11.583"><defs><style>.a{fill:#fff;}</style></defs><g transform="translate(0 -61)"><g transform="translate(0 61)"><path class="a" d="M93.784,142.66h-.613V137.2h2.113a.367.367,0,0,0,.367-.367v-.612h1.363a.367.367,0,0,0,.367-.367V135a.367.367,0,0,0-.367-.367H87.73a.367.367,0,0,0-.367.367v.863a.367.367,0,0,0,.367.367h1.363v.612a.367.367,0,0,0,.367.367h2.113v5.455h-.613a1,1,0,0,0-1,1,.367.367,0,0,0,.367.367h2.451a.223.223,0,0,0,0-.446H90.409a.556.556,0,0,1,.55-.475h2.825a.556.556,0,0,1,.55.475H93.64a.223.223,0,0,0,0,.446h.778a.367.367,0,0,0,.367-.367A1,1,0,0,0,93.784,142.66Zm-1.059,0h-.708V137.2h.708Zm-.93-5.9H89.538v-.533h.6a.223.223,0,1,0,0-.446H87.808v-.705h9.126v.705H91.007a.223.223,0,1,0,0,.446h4.2v.533H91.8Z" transform="translate(-84.768 -132.443)"/><path class="a" d="M4.259,66.812H1.6V62.23A1.232,1.232,0,0,0,.367,61,.367.367,0,0,0,0,61.367v6.388a.654.654,0,0,0,.288.542v.552a.367.367,0,0,0,.288.358v3.1a.223.223,0,1,0,.446,0v-1.65H3.748V72.3a.223.223,0,1,0,.446,0v-3.1a.367.367,0,0,0,.288-.358V68.37a.656.656,0,0,0,.432-.615v-.288A.655.655,0,0,0,4.259,66.812Zm-.511,3.4H1.022v-.993H3.748Zm.288-1.439H.734v-.36h3.3v.36Zm.432-1.015a.21.21,0,0,1-.21.209H.655a.21.21,0,0,1-.21-.209V61.449a.786.786,0,0,1,.708.78v4.805a.223.223,0,0,0,.223.223H4.259a.21.21,0,0,1,.21.209Z" transform="translate(0 -61)"/><path class="a" d="M351.087,61a1.232,1.232,0,0,0-1.232,1.23v4.583H347.2a.656.656,0,0,0-.655.654v.288a.655.655,0,0,0,.432.615v.478a.367.367,0,0,0,.288.358v3.1a.223.223,0,1,0,.445,0v-1.65h2.726V72.3a.223.223,0,1,0,.446,0v-3.1a.367.367,0,0,0,.288-.358V68.3a.654.654,0,0,0,.288-.542V61.367A.367.367,0,0,0,351.087,61Zm-.655,9.208h-2.726v-.993h2.726Zm.288-1.439h-3.3v-.36h3.3Zm.288-1.014a.21.21,0,0,1-.21.209h-3.6a.21.21,0,0,1-.21-.209v-.288a.21.21,0,0,1,.21-.209h2.883a.223.223,0,0,0,.223-.223V62.23a.786.786,0,0,1,.708-.78Z" transform="translate(-336.247 -61)"/></g></g></svg>