<svg xmlns="http://www.w3.org/2000/svg" width="12.873" height="12.87" viewBox="0 0 12.873 12.87"><defs><style>.a{fill:#fff;}</style></defs><g transform="translate(0.001 0.003)"><path class="a" d="M61.886,63.638a1.889,1.889,0,0,0,1.848-1.509h4.614v-.754H63.733a1.886,1.886,0,1,0-1.848,2.263Zm0-.754a1.124,1.124,0,0,1-.488-.111l1.508-1.508a1.131,1.131,0,0,1-1.021,1.619Zm0-2.263a1.125,1.125,0,0,1,.488.111L60.865,62.24a1.131,1.131,0,0,1,1.021-1.619Zm0,0" transform="translate(-58.492 -58.364)"/><path class="a" d="M1.523,6.234l.39,5.125h1.1v.377a1.133,1.133,0,0,0,1.131,1.131h7.216a1.509,1.509,0,1,0,0-3.017H7.542a.754.754,0,0,1,0-1.509h5.33V7.587H7.542a1.509,1.509,0,1,0,0,3.017h3.822a.754.754,0,0,1,0,1.509H4.148a.378.378,0,0,1-.377-.377v-.377h1.1l.383-4.872,4.268-.9a4.173,4.173,0,0,1,2.7.376l.648.324V.515l-.651.326a4.143,4.143,0,0,1-2.695.352L3.793.021a3.4,3.4,0,0,0-2.27,6.213ZM4.413,7.587H3.393v.754h.96L4.295,9.1h-.9V9.85h.842l-.059.754H2.612l-.3-3.982a3.4,3.4,0,0,0,1.663.134l.516-.108Zm7.7-2.5a5.082,5.082,0,0,0-.754-.227V1.931a4.895,4.895,0,0,0,.754-.221ZM3.689.769,9.374,1.932a4.893,4.893,0,0,0,1.235.095V4.761a4.7,4.7,0,0,0-1.24.088c-.05.011-4.952,1.045-5.53,1.166A2.649,2.649,0,1,1,3.689.769Zm0,0" transform="translate(0 0)"/></g></svg>