<svg xmlns="http://www.w3.org/2000/svg" width="15.696" height="8.552" viewBox="0 0 15.696 8.552"><defs><style>.a{fill:#fff;}</style></defs><g transform="translate(0 -0.001)"><path class="a" d="M15.207,6.648V2.811A3.486,3.486,0,0,0,14.769.853,2.106,2.106,0,0,0,12.879,0h-3.9A9.97,9.97,0,0,0,5.929.5,8.01,8.01,0,0,0,2.317,2.849q-.208.241-.389.5l0,.005A6.124,6.124,0,0,0,.763,6.625h-.1A.664.664,0,0,0,0,7.287v.6a.663.663,0,0,0,.663.663H15.034A.663.663,0,0,0,15.7,7.89v-.6a.664.664,0,0,0-.49-.64Zm.03,1.243a.2.2,0,0,1-.2.2H.663a.2.2,0,0,1-.2-.2v-.6a.2.2,0,0,1,.2-.2H7.577a.23.23,0,1,0,0-.46H1.223a5.537,5.537,0,0,1,.112-.86h.641a.23.23,0,0,0,0-.46H1.455a5.565,5.565,0,0,1,.213-.58h.676a.23.23,0,0,0,0-.46H1.89a6.024,6.024,0,0,1,.343-.558H2.95a.23.23,0,0,0,0-.46H2.583A7.6,7.6,0,0,1,6.068.939,9.518,9.518,0,0,1,8.978.461h3.9a1.658,1.658,0,0,1,1.506.647,3.074,3.074,0,0,1,.361,1.7V6.625H8.777a.23.23,0,1,0,0,.46h6.257a.2.2,0,0,1,.2.2Zm0,0" transform="translate(0 0)"/><path class="a" d="M390.063,159.6h-.342a.717.717,0,1,0,0,1.433h.342a.717.717,0,0,0,0-1.433Zm0,.973h-.342a.257.257,0,1,1,0-.514h.342a.257.257,0,1,1,0,.514Zm0,0" transform="translate(-377.078 -154.704)"/><path class="a" d="M196.2,48.178a.645.645,0,0,0,.592-.685V45.728c0-.316-.221-.685-.845-.685h-3.5a3.792,3.792,0,0,0-2.656.867,2.226,2.226,0,0,0-.769,1.582.645.645,0,0,0,.592.685Zm-1.408-.46H191.7v-.307a.308.308,0,0,1,.307-.308h2.47a.308.308,0,0,1,.308.308Zm-5.311-.225a1.773,1.773,0,0,1,.619-1.242,3.422,3.422,0,0,1,2.346-.747h3.5c.176,0,.385.039.385.225v1.764c0,.138-.078.226-.132.226h-.949v-.307a.769.769,0,0,0-.768-.768h-2.47a.768.768,0,0,0-.767.768v.307h-1.634C189.554,47.718,189.475,47.63,189.475,47.492Zm0,0" transform="translate(-183.22 -43.661)"/></g></svg>