<svg xmlns="http://www.w3.org/2000/svg" width="15.002" height="16.669" viewBox="0 0 15.002 16.669"><defs><style>.a{fill:#fff;}</style></defs><g transform="translate(-3)"><path class="a" d="M23.723,11.667a1.667,1.667,0,1,0-3.334,0v1.389H19v5.278h6.112V13.056H23.723Zm-2.778,0a1.111,1.111,0,1,1,2.223,0v1.389H20.945Zm3.612,1.945v4.167h-5V13.612h5Z" transform="translate(-11.555 -7.222)"/><path class="a" d="M26.833,27.183v.6a.278.278,0,0,0,.556,0v-.6a1.111,1.111,0,1,0-.556,0Zm.278-1.627a.556.556,0,1,1-.556.556A.556.556,0,0,1,27.111,25.556Z" transform="translate(-16.61 -18.055)"/><path class="a" d="M10.5,0A7.5,7.5,0,0,0,9.86,14.973L8.638,16.195a.278.278,0,1,0,.393.393L10.7,14.921a.275.275,0,0,0,.06-.091.279.279,0,0,0-.06-.3L9.031,12.861a.278.278,0,0,0-.393.393L9.794,14.41a6.946,6.946,0,1,1,5.641-2.022.278.278,0,1,0,.395.391A7.5,7.5,0,0,0,10.5,0Z" transform="translate(0)"/></g></svg>