<svg xmlns="http://www.w3.org/2000/svg" width="12.935" height="10.779" viewBox="0 0 12.935 10.779"><defs><style>.a{fill:#fff;}</style></defs><path class="a" d="M12.288,0H.647A.647.647,0,0,0,0,.647V9.27a.647.647,0,0,0,.647.647h.647v.647a.216.216,0,0,0,.216.216H2.8a.216.216,0,0,0,.216-.216V9.917h6.9v.647a.216.216,0,0,0,.216.216h1.293a.216.216,0,0,0,.216-.216V9.917h.647a.647.647,0,0,0,.647-.647V.647A.647.647,0,0,0,12.288,0Zm-9.7,10.348H1.725V9.917h.862Zm8.623,0h-.862V9.917h.862ZM12.5,9.27a.216.216,0,0,1-.216.216H.647A.216.216,0,0,1,.431,9.27V.647A.216.216,0,0,1,.647.431H12.288A.216.216,0,0,1,12.5.647Zm0,0"/><path class="a" d="M56.407,48H48.647a.647.647,0,0,0-.647.647v6.036a.647.647,0,0,0,.647.647h7.761a.647.647,0,0,0,.647-.647V48.647A.647.647,0,0,0,56.407,48Zm.216,6.683a.216.216,0,0,1-.216.216H48.647a.216.216,0,0,1-.216-.216V48.647a.216.216,0,0,1,.216-.216h7.761a.216.216,0,0,1,.216.216Zm0,0" transform="translate(-46.707 -46.707)"/><path class="a" d="M400.647,96a.647.647,0,1,0,.647.647A.647.647,0,0,0,400.647,96Zm0,.862a.216.216,0,1,1,.216-.216A.216.216,0,0,1,400.647,96.862Zm0,0" transform="translate(-389.221 -93.413)"/><path class="a" d="M400.647,160a.647.647,0,1,0,.647.647A.647.647,0,0,0,400.647,160Zm0,.862a.216.216,0,1,1,.216-.216A.216.216,0,0,1,400.647,160.862Zm0,0" transform="translate(-389.221 -155.688)"/><path class="a" d="M400.647,224a.647.647,0,1,0,.647.647A.647.647,0,0,0,400.647,224Zm0,.862a.216.216,0,1,1,.216-.216A.216.216,0,0,1,400.647,224.862Zm0,0" transform="translate(-389.221 -217.964)"/><path class="a" d="M400,64h1.293v.431H400Zm0,0" transform="translate(-389.221 -62.275)"/><path class="a" d="M312.862,80H312v.431h.647v.647h.431v-.862A.216.216,0,0,0,312.862,80Zm0,0" transform="translate(-303.593 -77.844)"/><path class="a" d="M336,136h.431v.431H336Zm0,0" transform="translate(-326.946 -132.335)"/><path class="a" d="M96,208.431h.513l.371.743a.216.216,0,0,0,.193.119h4.312a.215.215,0,0,0,.194-.119l.37-.743h.513V208H96Zm5.256.431H97.211L97,208.431h4.476Zm0,0" transform="translate(-93.413 -202.395)"/><path class="a" d="M203.2,114.156h.431a.334.334,0,0,1,.089-.233.778.778,0,0,0,0-.97.352.352,0,0,1,0-.467.753.753,0,0,0,.17-.486h-.431a.335.335,0,0,1-.089.233.778.778,0,0,0,0,.97.351.351,0,0,1,0,.467A.752.752,0,0,0,203.2,114.156Zm0,0" transform="translate(-197.721 -108.982)"/><path class="a" d="M251.2,114.156h.431a.334.334,0,0,1,.089-.233.778.778,0,0,0,0-.97.352.352,0,0,1,0-.467.753.753,0,0,0,.17-.486h-.431a.335.335,0,0,1-.089.233.779.779,0,0,0,0,.97.351.351,0,0,1,0,.467A.753.753,0,0,0,251.2,114.156Zm0,0" transform="translate(-244.428 -108.982)"/><path class="a" d="M155.2,114.156h.431a.334.334,0,0,1,.089-.233.778.778,0,0,0,0-.97.352.352,0,0,1,0-.467.753.753,0,0,0,.17-.486h-.431a.335.335,0,0,1-.089.233.778.778,0,0,0,0,.97.351.351,0,0,1,0,.467A.753.753,0,0,0,155.2,114.156Zm0,0" transform="translate(-151.015 -108.982)"/></svg>