<svg xmlns="http://www.w3.org/2000/svg" width="12.487" height="13.867" viewBox="0 0 12.487 13.867"><defs><style>.a{fill:#fff;}</style></defs><g transform="translate(-0.059 -0.001)"><path class="a" d="M.669,7.676a.471.471,0,0,0,.156.032c.129.352.27.726.331.853a4.917,4.917,0,0,1,.262,2.088,3.6,3.6,0,0,0,.531,2.478,2.364,2.364,0,0,0,1.724.745h.049a2.286,2.286,0,0,0,1.568-.555,2.681,2.681,0,0,0,.444-2.546c-.039-.151-.081-.307-.126-.468a8.181,8.181,0,0,1-.391-2.326c.018-.084.083-.4.161-.775a.466.466,0,0,0,.136-.063.454.454,0,0,0,.189-.3c.116-.678.21-1.658.341-3.075C6.2,2.059,5.7.732,4.692.218A2.736,2.736,0,0,0,1.667.954C-.183,2.56-.174,5.417.4,7.376a.461.461,0,0,0,.273.3Zm4.615,3.209a2.318,2.318,0,0,1-.325,2.108,1.83,1.83,0,0,1-1.279.417,1.906,1.906,0,0,1-1.392-.6,3.274,3.274,0,0,1-.409-2.162,5.226,5.226,0,0,0-.308-2.292c-.045-.1-.173-.427-.313-.81a3.6,3.6,0,0,1,.426-.176c.145.4.267.711.3.791a5.663,5.663,0,0,1,.351,2.492c-.009.886.006,1.537.287,1.845a1.446,1.446,0,0,0,1.065.445h.028a1.431,1.431,0,0,0,.908-.279A1.856,1.856,0,0,0,4.837,11c-.026-.1-.054-.2-.083-.309l-.038-.138a8.975,8.975,0,0,1-.424-2.614V7.873l.014-.063s.063-.3.144-.689c.16.015.314.034.461.055-.084.408-.152.728-.152.728a.225.225,0,0,0,0,.044,8.516,8.516,0,0,0,.407,2.479c.043.157.086.311.123.458ZM4.27,10.672l.038.138c.028.1.056.2.081.3A1.488,1.488,0,0,1,4.3,12.34a1.1,1.1,0,0,1-.583.145H3.7a.991.991,0,0,1-.727-.294A3.561,3.561,0,0,1,2.8,10.652a5.985,5.985,0,0,0-.4-2.685c-.023-.049-.126-.309-.277-.72a7.091,7.091,0,0,1,1.852-.156c-.074.355-.13.623-.13.623L3.835,7.8a.237.237,0,0,0-.005.049v.084a9.361,9.361,0,0,0,.44,2.74ZM1.97,1.3A2.924,2.924,0,0,1,3.8.469a1.472,1.472,0,0,1,.679.16c.818.419,1.239,1.6,1.1,3.094C5.453,5.13,5.359,6.1,5.238,6.762H5.227A7.223,7.223,0,0,0,.84,7.247C.411,5.775.168,2.867,1.97,1.3Zm0,0" transform="translate(0 -0.006)"/><path class="a" d="M33.286,54.655h.026a.231.231,0,0,0,.229-.2,3.233,3.233,0,0,1,1.524-2.592.231.231,0,0,0-.2-.415A3.68,3.68,0,0,0,33.083,54.4a.231.231,0,0,0,.2.256Zm0,0" transform="translate(-32.128 -50.031)"/><path class="a" d="M120.171,34.5a.236.236,0,1,0-.236.231A.234.234,0,0,0,120.171,34.5Zm0,0" transform="translate(-116.401 -33.345)"/><path class="a" d="M239.525,6.835a.455.455,0,0,0,.189.3.464.464,0,0,0,.136.064c.078.377.144.691.161.775a8.179,8.179,0,0,1-.391,2.326c-.044.161-.087.316-.126.468a2.681,2.681,0,0,0,.444,2.546,2.286,2.286,0,0,0,1.568.554h.049a2.365,2.365,0,0,0,1.724-.745,3.6,3.6,0,0,0,.53-2.478,4.918,4.918,0,0,1,.263-2.089c.059-.125.2-.5.33-.851a.472.472,0,0,0,.156-.032.461.461,0,0,0,.273-.3c.57-1.959.579-4.816-1.271-6.422a2.736,2.736,0,0,0-3.025-.737c-1,.515-1.509,1.841-1.351,3.548C239.315,5.177,239.409,6.157,239.525,6.835Zm4.131,1.519a5.227,5.227,0,0,0-.308,2.294,3.273,3.273,0,0,1-.409,2.161,1.907,1.907,0,0,1-1.392.6,1.844,1.844,0,0,1-1.279-.416,2.318,2.318,0,0,1-.325-2.108c.038-.148.08-.3.124-.459a8.512,8.512,0,0,0,.407-2.479.224.224,0,0,0-.005-.044s-.067-.32-.151-.728c.147-.022.3-.041.461-.056.081.391.144.69.144.691l.013.061v.067a8.971,8.971,0,0,1-.424,2.611l-.033.121c-.031.111-.061.221-.088.329a1.855,1.855,0,0,0,.211,1.673,1.453,1.453,0,0,0,.9.273h.032A1.443,1.443,0,0,0,242.6,12.5c.281-.308.3-.959.287-1.854a5.632,5.632,0,0,1,.358-2.5c.03-.065.149-.369.3-.778a3.606,3.606,0,0,1,.427.176c-.139.383-.267.714-.312.808Zm-1.233,2.3a3.537,3.537,0,0,1-.166,1.529.989.989,0,0,1-.724.295h-.028a1.149,1.149,0,0,1-.579-.139,1.482,1.482,0,0,1-.089-1.232c.027-.105.056-.212.086-.32l.033-.121a9.356,9.356,0,0,0,.44-2.737V7.842a.227.227,0,0,0-.005-.049l-.018-.085s-.056-.267-.13-.624a7.1,7.1,0,0,1,1.853.156c-.15.411-.253.671-.27.708a6,6,0,0,0-.4,2.707ZM240.745.623a2.314,2.314,0,0,1,2.511.674c1.8,1.564,1.559,4.472,1.123,5.944a5.631,5.631,0,0,0-2.78-.624,9.428,9.428,0,0,0-1.6.138h-.008l-.011,0c-.113-.662-.206-1.633-.336-3.04-.138-1.489.284-2.675,1.1-3.094Zm0,0" transform="translate(-232.622 0)"/></g></svg>