<svg xmlns="http://www.w3.org/2000/svg" width="12.706" height="11.435" viewBox="0 0 12.706 11.435"><defs><style>.a{fill:#fff;}</style></defs><path class="a" d="M12.494.847H10.377V.424h.635V0H7.624V.424h.635V.847H4.447V.424h.635V0H1.694V.424h.635V.847H.212A.212.212,0,0,0,0,1.059V2.753a.212.212,0,0,0,.212.212H.635v7.412a.212.212,0,0,0,.212.212h.424v.635a.212.212,0,0,0,.212.212H2.753a.212.212,0,0,0,.212-.212v-.635H9.741v.635a.212.212,0,0,0,.212.212h1.271a.212.212,0,0,0,.212-.212v-.635h.424a.212.212,0,0,0,.212-.212V2.965h.424a.212.212,0,0,0,.212-.212V1.059A.212.212,0,0,0,12.494.847ZM8.682.424H9.953V.847H8.682Zm-5.929,0H4.024V.847H2.753ZM2.541,11.012H1.694v-.424h.847Zm8.471,0h-.847v-.424h.847Zm.635-.847H1.059v-7.2H11.647Zm.635-7.624H.424V1.271H12.282Zm0,0"/><path class="a" d="M120,64h.424v.424H120Zm0,0" transform="translate(-116.824 -62.306)"/><path class="a" d="M152,64h.424v.424H152Zm0,0" transform="translate(-147.976 -62.306)"/><path class="a" d="M88,64h.424v.424H88Zm0,0" transform="translate(-85.671 -62.306)"/><path class="a" d="M344,64h.424v.424H344Zm0,0" transform="translate(-334.894 -62.306)"/><path class="a" d="M312,64h.424v.424H312Zm0,0" transform="translate(-303.741 -62.306)"/><path class="a" d="M376,64h.424v.424H376Zm0,0" transform="translate(-366.047 -62.306)"/><path class="a" d="M88.424,149.506h7.2a.424.424,0,0,0,.424-.424v-4.659a.424.424,0,0,0-.424-.424h-7.2a.424.424,0,0,0-.424.424v4.659A.424.424,0,0,0,88.424,149.506Zm0-5.082h7.2v4.659h-7.2Zm0,0" transform="translate(-85.671 -140.188)"/><path class="a" d="M320.847,176H320v.424h.635v.635h.424v-.847A.212.212,0,0,0,320.847,176Zm0,0" transform="translate(-311.529 -171.341)"/><path class="a" d="M344,232h.424v.424H344Zm0,0" transform="translate(-334.894 -225.859)"/></svg>