<svg xmlns="http://www.w3.org/2000/svg" width="13.108" height="11.229" viewBox="0 0 13.108 11.229"><defs><style>.a{fill:#fff;}</style></defs><path class="a" d="M13.108,1.913A1.006,1.006,0,0,0,12.1.907h-.279A2.293,2.293,0,0,0,10,0H4.19A2.3,2.3,0,0,0,2.363.907H1.005a1.005,1.005,0,1,0,0,2.01h.889V8.1a.194.194,0,1,0,.389,0V2.918H5.189V8.385a.194.194,0,0,0,.194.194H9.516v2.26H2.283V8.88a.194.194,0,0,0-.389,0v2.154a.194.194,0,0,0,.194.194H9.711a.194.194,0,0,0,.194-.194V8.579H12.1a.194.194,0,0,0,.194-.194V2.9a1.007,1.007,0,0,0,.815-.987ZM4.19.389H10A1.909,1.909,0,0,1,11.9,2.3V5.316H10.578a.194.194,0,0,0,0,.389H11.9v.574H5.578V5.7H9.8a.194.194,0,0,0,0-.389H5.578V2.3A1.39,1.39,0,0,0,4.19.907H2.884A1.906,1.906,0,0,1,4.19.389ZM.389,1.913a.616.616,0,1,1,.616.616.617.617,0,0,1-.616-.616Zm1.41.616A1,1,0,0,0,1.8,1.3H4.19a1,1,0,0,1,1,1v.234Zm3.78,5.662V6.668H11.9V8.191ZM12.293,2.5V2.3a2.282,2.282,0,0,0-.229-1H12.1a.616.616,0,0,1,.19,1.2Zm0,0"/></svg>