<svg xmlns="http://www.w3.org/2000/svg" width="10.833" height="13" viewBox="0 0 10.833 13"><defs><style>.a{fill:#fff;}</style></defs><path class="a" d="M9.75,0H1.083A1.085,1.085,0,0,0,0,1.083v10.4a.65.65,0,0,0,.65.65v.65A.217.217,0,0,0,.867,13h9.1a.217.217,0,0,0,.217-.217v-.65a.65.65,0,0,0,.65-.65V1.083A1.085,1.085,0,0,0,9.75,0ZM1.083.433H9.75a.65.65,0,0,1,.65.65V2.6H.433V1.083a.65.65,0,0,1,.65-.65ZM9.75,12.567H1.083v-.433H9.75Zm.433-.867H.65a.217.217,0,0,1-.217-.217V3.033H10.4v8.45a.217.217,0,0,1-.217.217Zm0,0"/><path class="a" d="M34.35,35.433h2.6a.217.217,0,0,0,.217-.217V34.35a.217.217,0,0,0-.217-.217h-2.6a.217.217,0,0,0-.217.217v.867A.217.217,0,0,0,34.35,35.433Zm.217-.867h2.167V35H34.566Zm0,0" transform="translate(-33.266 -33.266)"/><path class="a" d="M171.318,35.433a.65.65,0,1,0-.65-.65A.65.65,0,0,0,171.318,35.433Zm0-.867a.217.217,0,1,1-.217.217A.217.217,0,0,1,171.318,34.566Zm0,0" transform="translate(-166.335 -33.266)"/><path class="a" d="M239.583,35.433a.65.65,0,1,0-.65-.65A.65.65,0,0,0,239.583,35.433Zm0-.867a.217.217,0,1,1-.217.217A.217.217,0,0,1,239.583,34.566Zm0,0" transform="translate(-232.867 -33.266)"/><path class="a" d="M307.416,51.633h.433a.217.217,0,0,0,0-.433h-.433a.217.217,0,1,0,0,.433Zm0,0" transform="translate(-299.399 -49.899)"/><path class="a" d="M358.616,51.633h.433a.217.217,0,1,0,0-.433h-.433a.217.217,0,1,0,0,.433Zm0,0" transform="translate(-349.299 -49.899)"/><path class="a" d="M80.268,153.6a3.467,3.467,0,1,0,3.467,3.467A3.467,3.467,0,0,0,80.268,153.6Zm0,6.5a3.033,3.033,0,1,1,3.033-3.033A3.033,3.033,0,0,1,80.268,160.1Zm0,0" transform="translate(-74.851 -149.702)"/><path class="a" d="M105.215,179.2a2.814,2.814,0,0,0-2.6,3.885s0,.009,0,.013.006.008.008.013a2.815,2.815,0,0,0,5.313-.366.082.082,0,0,0,0-.011,2.806,2.806,0,0,0-2.72-3.534Zm0,.433a2.378,2.378,0,0,1,2.326,2.9,3.34,3.34,0,0,0-.332.13,1.966,1.966,0,0,1-.91.221,1.464,1.464,0,0,1-.77-.195,1.893,1.893,0,0,0-.963-.238,5.691,5.691,0,0,0-1.615.3,2.381,2.381,0,0,1,2.265-3.12Zm0,4.767a2.385,2.385,0,0,1-2.094-1.246,5.161,5.161,0,0,1,1.444-.271,1.464,1.464,0,0,1,.77.195,1.892,1.892,0,0,0,.964.238,2.337,2.337,0,0,0,1.049-.242A2.384,2.384,0,0,1,105.215,184.4Zm0,0" transform="translate(-99.798 -174.648)"/></svg>