<svg xmlns="http://www.w3.org/2000/svg" width="11.684" height="13.493" viewBox="0 0 11.684 13.493"><defs><style>.a{fill:#fff;}</style></defs><path class="a" d="M93.894.173A.2.2,0,0,0,93.7,0H88.5a.2.2,0,0,0-.2.173c0,.009-.12.88-.252,1.93a.2.2,0,1,0,.4.05c.1-.773.187-1.449.229-1.754h4.845c.09.67.416,3.13.55,4.551H88.127c.044-.465.112-1.083.2-1.848a.2.2,0,0,0-.4-.048c-.142,1.179-.228,2.014-.255,2.483A3.114,3.114,0,0,0,88.55,7.87a3.52,3.52,0,0,0,1.9,1.037v.729a.2.2,0,0,0,.4,0V8.96q.126.009.253.009t.253-.009V12.2a.2.2,0,0,0,.075.156l.916.736H89.856l.916-.736a.2.2,0,0,0,.075-.156V10.564a.2.2,0,0,0-.4,0v1.543l-1.283,1.031a.2.2,0,0,0,.125.355h3.62a.2.2,0,0,0,.125-.355l-1.283-1.031v-3.2a3.52,3.52,0,0,0,1.9-1.037,3.114,3.114,0,0,0,.871-2.332c-.078-1.336-.6-5.2-.625-5.365ZM93.357,7.6a3.105,3.105,0,0,1-4.517,0,2.719,2.719,0,0,1-.763-2.035c0-.063.009-.134.014-.211h6.013c.006.076.011.147.014.211A2.719,2.719,0,0,1,93.357,7.6Zm0,0" transform="translate(-85.364 0)"/><path class="a" d="M365.481,53.578c-.35-.048-.626-.5-.681-.895a.2.2,0,0,0-.4,0c-.056.393-.332.847-.681.895a.2.2,0,0,0,0,.4c.35.048.626.5.681.895a.2.2,0,0,0,.4,0c.055-.393.332-.847.681-.895a.2.2,0,0,0,0-.4Zm-.879.647a1.448,1.448,0,0,0-.371-.449.378.378,0,1,1,.743,0A1.449,1.449,0,0,0,364.6,54.225Zm0,0" transform="translate(-353.969 -51.128)"/><path class="a" d="M1.5.8C1.273.768,1.075.45,1.036.172a.2.2,0,0,0-.4,0C.6.45.4.768.173.8a.2.2,0,0,0,0,.4c.231.032.429.351.468.629a.2.2,0,0,0,.4,0c.039-.278.237-.6.468-.629a.2.2,0,0,0,0-.4Zm-.666.437A1.134,1.134,0,0,0,.637,1a1.139,1.139,0,0,0,.2-.24,1.136,1.136,0,0,0,.2.24,1.133,1.133,0,0,0-.2.24Zm0,0" transform="translate(0)"/></svg>