<svg xmlns="http://www.w3.org/2000/svg" width="25" height="21.667" viewBox="0 0 25 21.667"><defs><style>.a{fill:#fff;}</style></defs><g transform="translate(0 0)"><g transform="translate(0 0)"><path class="a" d="M24.583,44.5h-.417V43.25a2.083,2.083,0,0,0-1.25-1.907V34.917a.417.417,0,0,0-.25-.382,1.649,1.649,0,0,0,.25-.868,1.667,1.667,0,1,0-3.333,0,1.65,1.65,0,0,0,.232.833H5.185a1.65,1.65,0,0,0,.232-.833,1.667,1.667,0,1,0-3.333,0,1.649,1.649,0,0,0,.25.868.417.417,0,0,0-.25.382v6.427A2.083,2.083,0,0,0,.833,43.25V44.5H.417A.417.417,0,0,0,0,44.917V50.75a.417.417,0,0,0,.417.417H.833V53.25a.417.417,0,0,0,.417.417H2.917a.417.417,0,0,0,.417-.417V51.167H21.667V53.25a.417.417,0,0,0,.417.417H23.75a.417.417,0,0,0,.417-.417V51.167h.417A.417.417,0,0,0,25,50.75V44.917A.417.417,0,0,0,24.583,44.5ZM21.25,32.833a.833.833,0,1,1-.833.833A.833.833,0,0,1,21.25,32.833Zm-17.5,0a.833.833,0,1,1-.833.833A.833.833,0,0,1,3.75,32.833Zm-.833,2.5H22.083v5.833H20.406a2.062,2.062,0,0,0,.428-1.25v-.833A2.086,2.086,0,0,0,18.75,37H15.417a2.086,2.086,0,0,0-2.083,2.083v.833a2.062,2.062,0,0,0,.428,1.25H11.239a2.062,2.062,0,0,0,.427-1.25v-.833A2.086,2.086,0,0,0,9.583,37H6.25a2.086,2.086,0,0,0-2.083,2.083v.833a2.062,2.062,0,0,0,.428,1.25H2.917ZM20,39.083v.833a1.25,1.25,0,0,1-1.25,1.25H15.417a1.25,1.25,0,0,1-1.25-1.25v-.833a1.25,1.25,0,0,1,1.25-1.25H18.75A1.25,1.25,0,0,1,20,39.083Zm-9.167,0v.833a1.25,1.25,0,0,1-1.25,1.25H6.25A1.25,1.25,0,0,1,5,39.917v-.833a1.25,1.25,0,0,1,1.25-1.25H9.583A1.25,1.25,0,0,1,10.833,39.083ZM1.667,43.25A1.25,1.25,0,0,1,2.917,42H22.083a1.25,1.25,0,0,1,1.25,1.25V44.5H1.667ZM2.5,52.833H1.667V51.167H2.5Zm20.833,0H22.5V51.167h.833Zm.833-2.5H.833v-5H24.167Z" transform="translate(0 -32)"/></g></g><g transform="translate(1.413 16.768)"><g transform="translate(0 0)"><path class="a" d="M33.767,352H32.353a.353.353,0,1,0,0,.707h1.413a.353.353,0,1,0,0-.707Z" transform="translate(-32 -352)"/></g></g><g transform="translate(8.039 16.768)"><g transform="translate(0 0)"><path class="a" d="M111.194,352H96.353a.353.353,0,1,0,0,.707h14.841a.353.353,0,1,0,0-.707Z" transform="translate(-96 -352)"/></g></g></svg>