<svg xmlns="http://www.w3.org/2000/svg" width="14.168" height="14.168" viewBox="0 0 14.168 14.168"><defs><style>.a{fill:#41a593;}</style></defs><g transform="translate(0)"><path class="a" d="M12.508,1.107h-.664V0H10.737V1.107H3.431V0H2.324V1.107H1.66A1.662,1.662,0,0,0,0,2.767v9.741a1.662,1.662,0,0,0,1.66,1.66H12.508a1.662,1.662,0,0,0,1.66-1.66V2.767A1.662,1.662,0,0,0,12.508,1.107Zm.553,11.4a.554.554,0,0,1-.553.553H1.66a.554.554,0,0,1-.553-.553V5.2H13.061Zm0-8.412H1.107V2.767a.554.554,0,0,1,.553-.553h.664V3.321H3.431V2.214h7.305V3.321h1.107V2.214h.664a.554.554,0,0,1,.553.553Z"/></g><g transform="translate(2.103 6.365)"><rect class="a" width="1.107" height="1.107"/></g><g transform="translate(4.317 6.365)"><rect class="a" width="1.107" height="1.107"/></g><g transform="translate(6.531 6.365)"><rect class="a" width="1.107" height="1.107"/></g><g transform="translate(8.744 6.365)"><rect class="a" width="1.107" height="1.107"/></g><g transform="translate(10.958 6.365)"><rect class="a" width="1.107" height="1.107"/></g><g transform="translate(2.103 8.578)"><rect class="a" width="1.107" height="1.107"/></g><g transform="translate(4.317 8.578)"><rect class="a" width="1.107" height="1.107"/></g><g transform="translate(6.531 8.578)"><rect class="a" width="1.107" height="1.107"/></g><g transform="translate(8.744 8.578)"><rect class="a" width="1.107" height="1.107"/></g><g transform="translate(2.103 10.792)"><rect class="a" width="1.107" height="1.107"/></g><g transform="translate(4.317 10.792)"><rect class="a" width="1.107" height="1.107"/></g><g transform="translate(6.531 10.792)"><rect class="a" width="1.107" height="1.107"/></g><g transform="translate(8.744 10.792)"><rect class="a" width="1.107" height="1.107"/></g><g transform="translate(10.958 8.578)"><rect class="a" width="1.107" height="1.107"/></g></svg>