<svg xmlns="http://www.w3.org/2000/svg" width="21.509" height="16.9" viewBox="0 0 21.509 16.9"><defs><style>.a{fill:#41a593;}</style></defs><path class="a" d="M35.873,330.1a1.839,1.839,0,0,0,1.259-.475l-6.094-6.094-.422.3q-.684.5-1.11.786a6.849,6.849,0,0,1-1.134.576,3.456,3.456,0,0,1-1.32.294h-.024a3.456,3.456,0,0,1-1.32-.294,6.827,6.827,0,0,1-1.134-.576q-.426-.282-1.11-.786c-.127-.093-.268-.2-.421-.3l-6.1,6.1a1.839,1.839,0,0,0,1.259.475Z" transform="translate(-16.284 -313.195)"/><path class="a" d="M1.212,199.6A6.364,6.364,0,0,1,0,198.555v9.272l5.371-5.371Q3.759,201.33,1.212,199.6Z" transform="translate(0 -193.106)"/><path class="a" d="M417.478,199.6q-2.452,1.66-4.169,2.858l5.369,5.369v-9.272A6.629,6.629,0,0,1,417.478,199.6Z" transform="translate(-397.169 -193.106)"/><path class="a" d="M19.594,59.013H1.926A1.714,1.714,0,0,0,.5,59.637a2.422,2.422,0,0,0-.5,1.56,2.8,2.8,0,0,0,.66,1.639,5.955,5.955,0,0,0,1.4,1.386q.408.288,2.461,1.71c.739.512,1.381.958,1.933,1.343.471.328.876.612,1.211.847l.179.128.331.238q.39.282.648.456t.624.39a3.644,3.644,0,0,0,.69.324,1.91,1.91,0,0,0,.6.108h.024a1.911,1.911,0,0,0,.6-.108,3.635,3.635,0,0,0,.69-.324q.366-.216.624-.39t.648-.456l.331-.238.179-.128,1.215-.844,4.4-3.057a5.709,5.709,0,0,0,1.464-1.476,3.176,3.176,0,0,0,.588-1.812,1.936,1.936,0,0,0-1.921-1.921Z" transform="translate(-0.006 -59.013)"/></svg>