<svg xmlns="http://www.w3.org/2000/svg" width="13.242" height="10.405" viewBox="0 0 13.242 10.405"><defs><style>.a{fill:#373c44;}</style></defs><g transform="translate(2 -57.6)"><g transform="translate(-2 57.6)"><path class="a" d="M28.6,327.57a1.132,1.132,0,0,0,.775-.292l-3.752-3.752-.26.187q-.421.31-.684.484a4.216,4.216,0,0,1-.7.355,2.128,2.128,0,0,1-.813.181h-.015a2.128,2.128,0,0,1-.813-.181,4.2,4.2,0,0,1-.7-.355q-.262-.173-.684-.484l-.259-.188-3.752,3.753a1.132,1.132,0,0,0,.775.292Z" transform="translate(-16.539 -317.165)"/><path class="a" d="M.746,199.2A3.919,3.919,0,0,1,0,198.555v5.708l3.307-3.307Q2.314,200.264.746,199.2Z" transform="translate(0 -195.2)"/><path class="a" d="M415.876,199.2q-1.51,1.022-2.567,1.76l3.305,3.306v-5.708A4.082,4.082,0,0,1,415.876,199.2Z" transform="translate(-403.372 -195.2)"/><path class="a" d="M12.066,59.013H1.188a1.055,1.055,0,0,0-.876.384,1.491,1.491,0,0,0-.307.961,1.727,1.727,0,0,0,.406,1.009,3.666,3.666,0,0,0,.865.853q.251.177,1.515,1.053l1.19.827.746.522.11.079.2.147q.24.174.4.281t.384.24a2.244,2.244,0,0,0,.425.2,1.176,1.176,0,0,0,.369.066h.015A1.176,1.176,0,0,0,7,65.568a2.238,2.238,0,0,0,.425-.2q.225-.133.384-.24t.4-.281l.2-.147.11-.079.748-.52,2.711-1.882a3.515,3.515,0,0,0,.9-.909,1.955,1.955,0,0,0,.362-1.116,1.192,1.192,0,0,0-1.182-1.182Z" transform="translate(-0.006 -59.013)"/></g></g></svg>