<svg xmlns="http://www.w3.org/2000/svg" width="18.93" height="18.918" viewBox="0 0 18.93 18.918"><defs><style>.a{fill:#41a593;}</style></defs><g transform="translate(0)"><path class="a" d="M18.921,15.118a.915.915,0,0,1-.281.8l-2.665,2.645a1.5,1.5,0,0,1-.471.341,1.946,1.946,0,0,1-.571.18q-.02,0-.12.01t-.26.01a9.238,9.238,0,0,1-1.233-.13,9.36,9.36,0,0,1-2.084-.641A17.494,17.494,0,0,1,8.44,16.8,20.844,20.844,0,0,1,5.114,14,21.96,21.96,0,0,1,2.789,11.35,18.847,18.847,0,0,1,1.306,9.016,12.574,12.574,0,0,1,.464,7.072a10.313,10.313,0,0,1-.381-1.5A4.964,4.964,0,0,1,0,4.577q.02-.361.02-.4A1.948,1.948,0,0,1,.2,3.6a1.5,1.5,0,0,1,.341-.471L3.21.469A.883.883,0,0,1,3.851.188a.748.748,0,0,1,.461.15,1.393,1.393,0,0,1,.341.371L6.8,4.777a.975.975,0,0,1,.1.7,1.249,1.249,0,0,1-.341.641L5.575,7.1a.334.334,0,0,0-.07.13.5.5,0,0,0-.03.15,3.619,3.619,0,0,0,.361.962,8.83,8.83,0,0,0,.741,1.172A13.017,13.017,0,0,0,8,11.11a13.274,13.274,0,0,0,1.6,1.433,9.258,9.258,0,0,0,1.172.751,3.116,3.116,0,0,0,.721.29l.25.05a.478.478,0,0,0,.13-.03.335.335,0,0,0,.13-.07l1.142-1.162a1.228,1.228,0,0,1,.842-.321,1.047,1.047,0,0,1,.541.12h.02l3.868,2.285A1.008,1.008,0,0,1,18.921,15.118Z" transform="translate(0 -0.188)"/></g></svg>