<svg xmlns="http://www.w3.org/2000/svg" width="11.782" height="15.49" viewBox="0 0 11.782 15.49"><defs><style>.a{fill:#373c44;}</style></defs><g transform="translate(-41.895)"><path class="a" d="M107.654,7.576c1.722,0,3.119-1.7,3.119-3.788S110.314,0,107.654,0s-3.119,1.7-3.119,3.788S105.931,7.576,107.654,7.576Z" transform="translate(-59.868)"/><path class="a" d="M41.9,300.437c0-.128,0-.036,0,0Z" transform="translate(0 -287.078)"/><path class="a" d="M308.085,301.6c0-.035,0-.242,0,0Z" transform="translate(-254.409 -288.143)"/><path class="a" d="M53.682,183.08c-.058-3.644-.534-4.683-4.176-5.34a2.559,2.559,0,0,1-3.415,0c-3.6.65-4.107,1.673-4.174,5.222-.005.29-.008.3-.009.271,0,.063,0,.18,0,.383,0,0,.867,1.748,5.89,1.748s5.89-1.748,5.89-1.748c0-.131,0-.221,0-.283A2.342,2.342,0,0,1,53.682,183.08Z" transform="translate(-0.012 -169.874)"/></g></svg>