<svg xmlns="http://www.w3.org/2000/svg" width="12.603" height="13.384" viewBox="0 0 12.603 13.384"><defs><style>.a{fill:#fff;}</style></defs><path class="a" d="M13.7,8.5v0a.853.853,0,1,0-.337-1.645h0a.284.284,0,1,0,.221.461A.346.346,0,1,1,13.672,8H11.743V1.189c0-.6-.206-1.126-.9-1.158-1.632-.074-3.283,0-4.917,0-.612,0-1.162.187-1.192.909-.027.632,0,1.271,0,1.9V8H2.776a.346.346,0,1,1,.114-.67.283.283,0,1,0,.234-.455A.854.854,0,1,0,2.776,8.5H3.845v4.372H2.776a.254.254,0,0,0,0,.508H13.7a.254.254,0,0,0,0-.508H12.606V8.5H13.7ZM5.712.54c.712-.065,1.46,0,2.175,0h2.554a2.62,2.62,0,0,1,.439,0c.389.07.355.366.355.65V8h-6V1.559C5.239,1.119,5.129.593,5.712.54ZM7.972,8.5v4.372H6.416V8.5H7.972Zm.508,0h1.556v4.372H8.48Zm-2.571,0v4.372H4.353V8.5H5.909Zm6.19,4.372H10.543V8.5H12.1Z" transform="translate(-1.922 0.001)"/></svg>