<svg xmlns="http://www.w3.org/2000/svg" width="13.7" height="13.7" viewBox="0 0 13.7 13.7"><defs><style>.a{fill:#fff;}</style></defs><g transform="translate(7.307 3.424)"><path class="a" d="M258.406,121.149l-.147-.482a1.048,1.048,0,0,0-1.985,0l-.147.482a2.711,2.711,0,0,0-.076,1.256,1.181,1.181,0,0,0,.608.823l-.164,3.67a.723.723,0,0,0,.183.562.8.8,0,0,0,1.127.05q.026-.024.05-.05a.713.713,0,0,0,.183-.547l-.165-3.686a1.181,1.181,0,0,0,.607-.823A2.71,2.71,0,0,0,258.406,121.149Zm-.374,1.176a.724.724,0,0,1-.474.545.228.228,0,0,0-.148.224l.174,3.854a.264.264,0,0,1-.068.207.353.353,0,0,1-.5,0,.274.274,0,0,1-.067-.222l.172-3.839a.228.228,0,0,0-.148-.224.724.724,0,0,1-.474-.545,2.251,2.251,0,0,1,.063-1.043l.147-.483a.592.592,0,0,1,1.111,0l.147.483A2.255,2.255,0,0,1,258.032,122.325Z" transform="translate(-256.012 -119.955)"/></g><g transform="translate(3.882 3.425)"><path class="a" d="M138.283,120a.228.228,0,0,0-.228.228v1.96l-.618.618a.228.228,0,0,0-.067.173l.2,4a.311.311,0,0,1-.086.233.322.322,0,0,1-.455,0l0,0a.311.311,0,0,1-.086-.233l.2-4a.228.228,0,0,0-.067-.173l-.618-.618v-1.96a.228.228,0,1,0-.457,0v2.055a.228.228,0,0,0,.067.161l.613.614-.195,3.9a.771.771,0,1,0,1.541.075q0-.038,0-.075l-.195-3.9.613-.614a.228.228,0,0,0,.067-.161v-2.055A.228.228,0,0,0,138.283,120Z" transform="translate(-136 -120)"/></g><g transform="translate(4.567 3.425)"><path class="a" d="M160.228,120a.228.228,0,0,0-.228.228v1.827a.228.228,0,1,0,.457,0v-1.827A.228.228,0,0,0,160.228,120Z" transform="translate(-160 -120)"/></g><g transform="translate(5.252 3.425)"><path class="a" d="M184.228,120a.228.228,0,0,0-.228.228v1.827a.228.228,0,1,0,.457,0v-1.827A.228.228,0,0,0,184.228,120Z" transform="translate(-184 -120)"/></g><path class="a" d="M6.85,0A6.85,6.85,0,1,0,13.7,6.85,6.85,6.85,0,0,0,6.85,0Zm0,13.243A6.393,6.393,0,1,1,13.243,6.85,6.393,6.393,0,0,1,6.85,13.243Z"/><g transform="translate(6.111 10.93)"><path class="a" d="M215.593,383.155a.228.228,0,0,0-.249-.205h-.008a4.2,4.2,0,0,1-.968,0,.228.228,0,1,0-.053.454,4.624,4.624,0,0,0,1.073,0A.228.228,0,0,0,215.593,383.155Z" transform="translate(-214.113 -382.949)"/></g><g transform="translate(9.684 3.826)"><path class="a" d="M339.954,134.134a.228.228,0,0,0-.322-.028h0a.228.228,0,0,0-.027.322,4.11,4.11,0,0,1-.242,5.559.228.228,0,1,0,.322.324A4.567,4.567,0,0,0,339.954,134.134Z" transform="translate(-339.295 -134.053)"/></g><g transform="translate(5.091 2.284)"><path class="a" d="M186.353,105.743h0Z" transform="translate(-186.125 -105.009)"/><path class="a" d="M181.218,80.154a4.607,4.607,0,0,0-2.688.165.228.228,0,1,0,.16.427,4.148,4.148,0,0,1,2.42-.148.228.228,0,0,0,.107-.444Z" transform="translate(-178.382 -80.027)"/></g><g transform="translate(2.283 4.067)"><path class="a" d="M81.644,148.171a4.11,4.11,0,0,1-.413-5.317.228.228,0,1,0-.365-.274l0,.005a4.567,4.567,0,0,0,.458,5.91.229.229,0,0,0,.324-.323Z" transform="translate(-79.989 -142.488)"/></g></svg>