<svg xmlns="http://www.w3.org/2000/svg" width="8.732" height="13.971" viewBox="0 0 8.732 13.971"><defs><style>.a{fill:#fff;}</style></defs><path class="a" d="M7.641,0H1.092A1.093,1.093,0,0,0,0,1.092v10.7A1.093,1.093,0,0,0,1.092,12.88h.273v.273a.82.82,0,0,0,.819.819h.273A.546.546,0,0,0,3,13.426V12.88H5.73v.546a.546.546,0,0,0,.546.546h.273a.82.82,0,0,0,.819-.819V12.88h.273a1.093,1.093,0,0,0,1.092-1.092V1.092A1.093,1.093,0,0,0,7.641,0ZM2.456,13.426H2.183a.273.273,0,0,1-.273-.273V12.88h.546v.546Zm4.366-.273a.273.273,0,0,1-.273.273H6.276V12.88h.546Zm1.364-1.364a.546.546,0,0,1-.546.546H1.092a.546.546,0,0,1-.546-.546V5.239H8.186Zm0-7.095H.546v-3.6A.546.546,0,0,1,1.092.546H7.641a.546.546,0,0,1,.546.546Zm0,0"/><path class="a" d="M42.636,93.637h-1.91a.546.546,0,0,1-.546-.546v-.273A.82.82,0,0,1,41,92h1.364a.82.82,0,0,1,.819.819v.273A.546.546,0,0,1,42.636,93.637ZM41,92.546a.273.273,0,0,0-.273.273v.273h1.91v-.273a.273.273,0,0,0-.273-.273Zm0,0" transform="translate(-39.084 -89.49)"/><path class="a" d="M42.363,213.637H41a.82.82,0,0,1-.819-.819v-.273a.546.546,0,0,1,.546-.546h1.91a.546.546,0,0,1,.546.546v.273A.82.82,0,0,1,42.363,213.637Zm-1.637-1.092v.273a.273.273,0,0,0,.273.273h1.364a.273.273,0,0,0,.273-.273v-.273Zm0,0" transform="translate(-39.084 -206.215)"/><path class="a" d="M260.273,334.729a.273.273,0,0,1-.273-.273v-2.183a.273.273,0,1,1,.546,0v2.183A.273.273,0,0,1,260.273,334.729Zm0,0" transform="translate(-252.905 -322.941)"/><path class="a" d="M260.289,292.546a.273.273,0,0,1,0-.546h0a.273.273,0,0,1,0,.546Zm0,0" transform="translate(-252.921 -284.032)"/></svg>