<svg xmlns="http://www.w3.org/2000/svg" width="10.148" height="16.023" viewBox="0 0 10.148 16.023"><defs><style>.a{fill:#fff;}</style></defs><path class="a" d="M104,106.938h.534c0-2.355,1.539-2.4,1.6-2.4l0-.534C106.115,104,104,104.034,104,106.938Zm0,0" transform="translate(-100.528 -100.528)"/><path class="a" d="M104,208h.534v.534H104Zm0,0" transform="translate(-100.528 -201.057)"/><path class="a" d="M9.347,0H1.869a.8.8,0,0,0-.8.8V2.671H0V4.807H1.068V8.546h.8v2.671a1.6,1.6,0,0,0,1.6,1.6h.267v2.938a.267.267,0,0,0,.267.267h3.2a.267.267,0,0,0,.267-.267V12.819h.267a1.6,1.6,0,0,0,1.6-1.6V8.546h.8V.8A.8.8,0,0,0,9.347,0ZM1.068,4.273H.534V3.2h.534ZM6.943,15.489H4.273V12.819H6.943Zm1.869-4.273a1.068,1.068,0,0,1-1.068,1.068H3.472A1.068,1.068,0,0,1,2.4,11.216v-1.6H8.813Zm0-2.136H2.4V8.546H8.813ZM2.938,8.012v-2.4a2.671,2.671,0,0,1,5.341,0v2.4Zm6.676,0h-.8v-2.4a3.2,3.2,0,1,0-6.409,0v2.4H1.6V2.136H9.614Zm0-6.409H1.6V.8A.267.267,0,0,1,1.869.534H9.347A.267.267,0,0,1,9.614.8Zm0,0"/></svg>