<svg xmlns="http://www.w3.org/2000/svg" width="12.536" height="12.536" viewBox="0 0 12.536 12.536"><defs><style>.a{fill:#fff;}</style></defs><g transform="translate(0.001)"><path class="a" d="M4.119,0H.311A.312.312,0,0,0,0,.311V10.5a.812.812,0,0,0,.681.8v.741a.494.494,0,0,0,.493.493H3.248a.494.494,0,0,0,.493-.493V11.3a.812.812,0,0,0,.69-.8V7.827a.184.184,0,1,0-.367,0v.682H.366V1.347h3.7v5.7a.184.184,0,0,0,.367,0V.311A.312.312,0,0,0,4.119,0ZM3.374,12.043a.126.126,0,0,1-.126.126H1.174a.126.126,0,0,1-.126-.126v-.731H3.374Zm.247-1.1H.81A.444.444,0,0,1,.366,10.5v-.89h3.7v.89a.444.444,0,0,1-.443.443Zm.443-2.068v.367H.366V8.876ZM.366.979V.367h3.7V.979Zm0,0"/><path class="a" d="M380.024,0h-2.742A.282.282,0,0,0,377,.282V1.567a.184.184,0,1,0,.367,0v-.22h2.571v9.243a.355.355,0,0,1-.355.355h-1.861a.355.355,0,0,1-.355-.355V2.307a.184.184,0,1,0-.367,0v8.282a.723.723,0,0,0,.722.722h.012v.8a.429.429,0,0,0,.428.428h.979a.429.429,0,0,0,.428-.428v-.8h.012a.723.723,0,0,0,.722-.722V.282A.282.282,0,0,0,380.024,0Zm-.82,12.107a.061.061,0,0,1-.061.061h-.979a.061.061,0,0,1-.061-.061v-.8h1.1ZM377.367.979V.367h2.571V.979Zm0,0" transform="translate(-367.77 0)"/><path class="a" d="M201.132,3.905a.184.184,0,0,0,.184-.184V.588A.184.184,0,0,0,201.132.4h-1.55A.551.551,0,0,0,198.5.551V11.985a.551.551,0,1,0,1.1,0V3.905Zm-.184-.367H199.6V3.2h.943a.184.184,0,1,0,0-.367H199.6v-.49h.943a.184.184,0,1,0,0-.367H199.6v-.49h.943a.184.184,0,1,0,0-.367H199.6V.771h1.347Zm-1.714,8.447a.184.184,0,1,1-.367,0V.551a.184.184,0,1,1,.367,0Zm0,0" transform="translate(-193.641)"/><path class="a" d="M266.544,213.783h-.11v-.453A.331.331,0,0,0,266.1,213h-.832a.331.331,0,0,0-.331.331v.453h-.11a.331.331,0,0,0-.331.331v4.634a.184.184,0,1,0,.367,0v-2.756h1.64v3.962h-1.64v-.428a.184.184,0,0,0-.367,0v.465a.331.331,0,0,0,.331.331h1.714a.331.331,0,0,0,.331-.331v-5.876A.331.331,0,0,0,266.544,213.783Zm-1.236-.416h.759v.416h-.759Zm1.2.783v.739h-1.64v-.739Zm-1.64,1.473v-.367h1.64v.367Zm0,0" transform="translate(-258.025 -207.785)"/></g></svg>