<svg xmlns="http://www.w3.org/2000/svg" width="15.126" height="10.78" viewBox="0 0 15.126 10.78"><defs><style>.a{fill:#fff;}</style></defs><g transform="translate(0 -7.89)"><path class="a" d="M15.045,10.985a10.593,10.593,0,0,0-14.965,0,.275.275,0,1,0,.39.39,10.042,10.042,0,0,1,14.186,0,.275.275,0,0,0,.39-.389Z"/><path class="a" d="M5.959,18.623a.275.275,0,1,0,.39.39,7.749,7.749,0,0,1,10.947,0,.275.275,0,0,0,.39-.39A8.3,8.3,0,0,0,5.959,18.623Z" transform="translate(-4.259 -6.02)"/><path class="a" d="M16.081,24.508a5.961,5.961,0,0,0-4.244,1.755.275.275,0,0,0,.39.39,5.457,5.457,0,0,1,7.708,0,.275.275,0,0,0,.39-.39A5.961,5.961,0,0,0,16.081,24.508Z" transform="translate(-8.518 -12.04)"/><path class="a" d="M22.708,33.916a1.8,1.8,0,1,0,1.8,1.8A1.807,1.807,0,0,0,22.708,33.916Zm0,3.059a1.254,1.254,0,1,1,1.254-1.254A1.255,1.255,0,0,1,22.708,36.975Z" transform="translate(-15.145 -18.856)"/></g></svg>